<?xml version="1.0" standalone="no"?>
<!DOCTYPE svg PUBLIC "-//W3C//DTD SVG 20010904//EN"
 "http://www.w3.org/TR/2001/REC-SVG-20010904/DTD/svg10.dtd">
<svg version="1.0" xmlns="http://www.w3.org/2000/svg"
 width="982.000000pt" height="152.000000pt" viewBox="0 0 982.000000 152.000000"
 preserveAspectRatio="xMidYMid meet">

<g transform="translate(0.000000,152.000000) scale(0.100000,-0.100000)"
fill="#000000" stroke="none">
<path d="M3141 1266 c-19 -23 -4 -943 15 -973 17 -27 65 -31 84 -8 19 23 4
941 -16 973 -17 26 -65 30 -83 8z"/>
<path d="M7770 1259 c-80 -15 -183 -74 -241 -137 -88 -95 -129 -202 -129 -335
1 -341 271 -569 601 -507 164 31 303 166 354 343 24 83 22 215 -4 298 -75 239
-329 387 -581 338z m270 -126 c297 -136 304 -591 12 -735 -40 -20 -63 -23
-152 -23 -93 0 -112 3 -162 27 -155 72 -237 224 -226 418 10 173 102 293 257
337 76 21 194 11 271 -24z"/>
<path d="M2271 1246 c-8 -10 -9 -133 -2 -474 5 -253 12 -465 16 -471 4 -8 117
-11 360 -11 312 0 354 2 359 16 11 29 6 53 -13 64 -12 6 -130 10 -314 10
l-294 0 -8 423 c-4 232 -11 430 -16 440 -12 21 -71 23 -88 3z"/>
<path d="M3382 1248 c-7 -7 -12 -22 -12 -33 0 -26 453 -901 481 -930 18 -18
21 -19 47 -5 21 13 69 104 243 468 146 305 215 459 212 473 -7 27 -47 45 -73
33 -14 -6 -79 -132 -207 -401 -103 -216 -190 -393 -193 -393 -4 0 -96 172
-205 383 -109 210 -205 390 -213 400 -17 20 -62 23 -80 5z"/>
<path d="M6412 1248 c-6 -6 -12 -21 -12 -32 0 -12 90 -136 199 -278 l198 -256
6 -69 c4 -37 7 -121 7 -185 0 -126 8 -148 55 -148 48 0 54 26 49 219 l-5 176
190 260 c106 145 191 269 191 281 0 29 -23 46 -56 42 -23 -2 -55 -42 -200
-243 -95 -132 -177 -239 -181 -239 -4 1 -89 109 -188 240 -158 210 -184 239
-210 242 -17 2 -36 -3 -43 -10z"/>
<path d="M8599 1244 c-10 -13 -13 -72 -10 -277 2 -289 10 -367 46 -444 77
-169 285 -274 482 -243 191 30 334 167 362 345 11 73 2 593 -11 618 -11 21
-70 23 -88 2 -9 -11 -11 -86 -9 -307 4 -329 1 -353 -60 -434 -26 -35 -56 -59
-105 -84 -65 -33 -75 -35 -165 -34 -84 0 -103 4 -154 28 -33 17 -76 49 -101
77 -73 81 -77 103 -87 444 -7 267 -10 301 -25 312 -24 18 -59 16 -75 -3z"/>
<path d="M252 1235 l-23 -17 7 -437 c5 -342 10 -442 21 -463 l14 -28 233 0
c204 0 240 2 289 19 152 53 249 174 285 354 36 185 -44 407 -182 502 -106 72
-134 79 -391 83 -203 3 -233 1 -253 -13z m519 -108 c139 -67 218 -222 206
-404 -9 -155 -90 -276 -217 -324 -43 -16 -77 -19 -229 -19 l-178 0 -7 112 c-4
90 -10 626 -7 662 1 4 85 6 189 4 179 -4 189 -5 243 -31z"/>
<path d="M1311 1234 l-24 -17 8 -441 c5 -357 9 -445 21 -463 l14 -23 359 0
c318 0 360 2 365 16 10 25 7 42 -10 58 -13 14 -57 16 -324 16 l-309 0 -6 32
c-3 18 -5 94 -3 168 l3 135 294 3 c197 1 299 6 308 13 18 15 17 44 -3 63 -13
14 -56 16 -310 16 l-294 0 0 48 c0 26 -3 104 -7 175 l-6 127 321 0 322 0 6 27
c15 58 19 58 -357 61 -307 2 -347 0 -368 -14z"/>
<path d="M4541 1234 l-23 -17 7 -441 c6 -356 10 -445 21 -464 l15 -22 362 2
362 3 3 26 c7 58 0 59 -338 59 l-308 0 -7 83 c-3 45 -5 120 -3 167 l3 85 294
3 c197 1 299 6 308 13 18 15 17 44 -3 63 -13 14 -56 16 -310 16 l-294 0 -2
110 c-1 61 -2 138 -3 173 l0 62 320 5 320 5 3 28 c7 58 11 57 -362 57 -300 0
-344 -2 -365 -16z"/>
<path d="M5507 1232 c-15 -16 -15 -60 -7 -471 6 -320 12 -457 21 -467 14 -17
61 -18 77 -2 8 8 12 62 12 175 l0 163 146 0 145 0 97 -102 c252 -267 248 -263
279 -253 20 8 29 18 31 37 3 23 -18 50 -133 172 l-135 144 56 17 c60 17 118
50 146 82 59 65 79 198 44 300 -36 106 -146 191 -277 213 -35 5 -159 10 -275
10 -190 0 -213 -2 -227 -18z m524 -99 c121 -39 198 -175 158 -280 -17 -45 -69
-91 -128 -114 -48 -18 -86 -22 -252 -26 l-196 -6 -6 69 c-4 38 -7 138 -7 222
l0 152 189 0 c151 0 199 -3 242 -17z"/>
</g>
</svg>
