<?xml version="1.0" standalone="no"?>
<!DOCTYPE svg PUBLIC "-//W3C//DTD SVG 20010904//EN"
 "http://www.w3.org/TR/2001/REC-SVG-20010904/DTD/svg10.dtd">
<svg version="1.0" xmlns="http://www.w3.org/2000/svg"
 width="367.000000pt" height="387.000000pt" viewBox="0 0 367.000000 387.000000"
 preserveAspectRatio="xMidYMid meet">

<g transform="translate(0.000000,387.000000) scale(0.100000,-0.100000)"
fill="#000000" stroke="none">
<path d="M870 3474 c-167 -35 -321 -157 -397 -314 -23 -47 -46 -109 -52 -138
-15 -74 -15 -2190 0 -2264 6 -29 29 -91 52 -138 77 -158 232 -279 402 -315 55
-12 164 -15 522 -15 264 0 462 4 477 10 55 21 69 106 24 146 -19 18 -51 19
-502 24 -456 5 -484 7 -532 26 -114 47 -202 132 -246 241 l-23 58 0 1095 0
1095 23 58 c44 109 132 194 246 241 49 20 72 21 531 24 320 2 487 6 501 13 50
26 57 97 15 140 l-29 29 -474 -1 c-364 0 -488 -4 -538 -15z"/>
<path d="M2635 2535 c-18 -17 -25 -35 -25 -62 0 -36 10 -49 220 -258 121 -121
220 -223 220 -227 0 -5 -423 -8 -941 -8 l-941 0 -29 -29 c-41 -41 -37 -102 10
-138 12 -10 233 -12 959 -13 518 0 942 -3 942 -7 0 -4 -99 -107 -220 -228
-197 -198 -220 -224 -220 -254 0 -45 16 -70 56 -87 29 -12 39 -12 67 0 18 8
164 147 335 318 l302 304 0 44 0 44 -313 313 c-312 313 -313 313 -355 313 -32
0 -49 -6 -67 -25z"/>
</g>
</svg>
